<?xml version="1.0" encoding="UTF-8"?>
<svg version="1.1" xmlns="http://www.w3.org/2000/svg" width="512" height="512">
<path d="M0 0 C3.86024443 1.42804941 7.73495433 2.81606521 11.60754395 4.21020508 C18.90913344 6.84403223 26.20184918 9.50134548 33.49035645 12.17114258 C42.10905455 15.32711078 50.73660095 18.45799003 59.37045479 21.57220459 C61.33279609 22.28004492 63.29500977 22.9882379 65.25718689 23.6965332 C72.98985865 26.48783033 72.98985865 26.48783033 80.72427368 29.27429199 C130.62190911 47.23949966 130.62190911 47.23949966 141.0880127 68.13598633 C144.40520173 76.57183411 144.40613032 84.49954896 144.35803223 93.46606445 C144.35746735 94.94505811 144.35778616 96.42405232 144.35891724 97.90304565 C144.35948877 101.898362 144.34776693 105.89355715 144.33376932 109.88884544 C144.32122856 114.07152052 144.32008883 118.25419867 144.31771851 122.43688965 C144.31151355 130.34857698 144.29511609 138.26020875 144.27501953 146.17187166 C144.25262984 155.18276063 144.24165939 164.19365231 144.23162866 173.20456219 C144.21074896 191.73251627 144.17559219 210.2604187 144.13098145 228.78833008 C143.41620636 228.86971725 142.70143127 228.95110443 141.96499634 229.03495789 C138.68906698 229.41053085 135.41394361 229.79273875 132.13879395 230.17504883 C131.01448975 230.302948 129.89018555 230.43084717 128.73181152 230.56262207 C114.26297539 232.26343773 98.9623867 235.75223939 86.38879395 243.47192383 C84.13098145 244.78833008 84.13098145 244.78833008 81.13098145 244.78833008 C80.75328613 243.98911133 80.37559082 243.18989258 79.9864502 242.36645508 C67.63386603 217.71914428 43.14588072 203.07579271 17.94348145 193.72583008 C10.86638537 191.98556055 6.59283153 194.46698838 0.2755127 197.44848633 C-19.39296311 205.82896732 -43.60331327 206.90111114 -63.86901855 199.78833008 C-67.87665575 198.09368266 -71.71583405 196.16127563 -75.5369873 194.08129883 C-83.39834426 191.03076055 -91.59130466 195.66264526 -98.86901855 198.78833008 C-110.70665206 204.04217855 -122.45100979 210.29790373 -131.6385498 219.58911133 C-133.86901855 221.78833008 -133.86901855 221.78833008 -135.86901855 221.78833008 C-136.1319873 222.36583008 -136.39495605 222.94333008 -136.66589355 223.53833008 C-137.93236145 225.90678952 -139.39223646 227.73485948 -141.11901855 229.78833008 C-152.5684507 244.36250309 -154.41248762 259.65565802 -154.36999512 277.57080078 C-154.36901685 280.48088793 -154.41088063 283.38838337 -154.45495605 286.2980957 C-154.46016048 288.17374133 -154.46285129 290.04939598 -154.46276855 291.92504883 C-154.47916382 292.78152512 -154.49555908 293.6380014 -154.51245117 294.52043152 C-154.43999711 300.91665859 -152.69569884 305.63631514 -148.86901855 310.78833008 C-120.13536949 337.41463107 -60.73994612 339.98154376 -23.86901855 338.78833008 C-7.32575677 338.03489063 8.8601056 335.80984426 25.13098145 332.78833008 C25.10777832 333.81829102 25.0845752 334.84825195 25.06066895 335.90942383 C24.74508093 356.07358543 27.44328997 374.72559915 36.02038574 393.15551758 C38.28201567 398.22291992 38.28201567 398.22291992 37.52160645 401.06958008 C33.33687057 406.24172554 28.31540342 410.57639165 23.2911377 414.91333008 C20.92143271 416.97021686 18.58670888 419.06239267 16.25598145 421.16333008 C15.40906738 421.92516602 14.56215332 422.68700195 13.6895752 423.47192383 C12.02799388 424.97622569 10.37386553 426.48881618 8.7286377 428.01098633 C-7.14971194 442.60259774 -19.58764026 450.83000787 -41.58728027 449.9675293 C-55.29340031 448.89110172 -65.35819098 438.64714861 -74.86901855 429.78833008 C-76.19634043 428.61482868 -77.52908669 427.44741225 -78.86901855 426.28833008 C-83.04630939 422.65888067 -87.12439095 418.92353987 -91.21276855 415.19458008 C-93.41254596 413.20184054 -95.62857074 411.23494867 -97.86901855 409.28833008 C-102.04630939 405.65888067 -106.12439095 401.92353987 -110.21276855 398.19458008 C-112.41254596 396.20184054 -114.62857074 394.23494867 -116.86901855 392.28833008 C-121.04630939 388.65888067 -125.12439095 384.92353987 -129.21276855 381.19458008 C-131.41254596 379.20184054 -133.62857074 377.23494867 -135.86901855 375.28833008 C-140.04630939 371.65888067 -144.12439095 367.92353987 -148.21276855 364.19458008 C-150.41254596 362.20184054 -152.62857074 360.23494867 -154.86901855 358.28833008 C-159.04630939 354.65888067 -163.12439095 350.92353987 -167.21276855 347.19458008 C-169.41254596 345.20184054 -171.62857074 343.23494867 -173.86901855 341.28833008 C-178.04142899 337.66312101 -182.11535706 333.93290225 -186.19714355 330.20629883 C-188.4802152 328.14018574 -190.78739474 326.11162968 -193.11901855 324.10083008 C-203.11461825 315.32918137 -211.86339599 305.62887887 -213.04431415 291.72433901 C-213.3404037 285.49203698 -213.28830184 279.2530265 -213.27307129 273.01538086 C-213.27877945 270.90532063 -213.28574543 268.79526349 -213.29386902 266.68521118 C-213.31176666 260.97439118 -213.31063833 255.26372512 -213.30492663 249.55288553 C-213.30182971 244.77670279 -213.30793288 240.0005494 -213.31396538 235.22437084 C-213.32799802 223.95220857 -213.32645994 212.68012211 -213.31506348 201.40795898 C-213.30358487 189.79835698 -213.31765663 178.18898605 -213.34445995 166.57941449 C-213.3666472 156.59352882 -213.37324746 146.60771553 -213.36738354 136.62180698 C-213.36401986 130.66573417 -213.36638992 124.70980944 -213.38363457 118.75375748 C-213.39914965 113.15085359 -213.39509739 107.54829087 -213.37632942 101.94540024 C-213.37265611 99.89603488 -213.37571505 97.84664399 -213.38621521 95.79730225 C-213.46502438 79.13643511 -211.45118667 65.42085124 -199.83776855 52.53442383 C-190.94136598 44.04093803 -179.30817963 39.97561173 -167.90026855 35.95239258 C-166.03322652 35.28320216 -164.16618482 34.61401083 -162.29915714 33.94478035 C-160.33589075 33.24267512 -158.37134525 32.54427305 -156.40634155 31.8470459 C-152.31255214 30.39443376 -148.22243479 28.93167809 -144.13293457 27.46704102 C-139.98880328 25.98324947 -135.84452594 24.49988258 -131.69898987 23.02001953 C-120.62234182 19.06533464 -109.56488738 15.05933928 -98.51623535 11.02706909 C-85.47863292 6.26982428 -72.43435546 1.53141137 -59.36901855 -3.14916992 C-58.23456299 -3.55683594 -57.10010742 -3.96450195 -55.93127441 -4.38452148 C-54.91041748 -4.74900391 -53.88956055 -5.11348633 -52.83776855 -5.48901367 C-51.96571777 -5.80088623 -51.09366699 -6.11275879 -50.19519043 -6.43408203 C-32.69748401 -12.2831789 -16.45839101 -6.12995612 0 0 Z M-81.86901855 70.78833008 C-93.31166726 84.11587433 -99.87041029 100.55527443 -99.2479248 118.22583008 C-97.20893492 137.3965391 -89.13533581 153.42106352 -74.3963623 165.87817383 C-60.17124321 176.44870948 -44.007338 181.08398664 -26.43151855 179.16333008 C-8.88573831 176.47225949 6.51063353 167.71050629 17.31848145 153.60083008 C27.97939763 138.1616148 32.1002507 121.13449855 29.13098145 102.66333008 C25.2180772 84.71107031 14.57378944 69.80601248 -0.86901855 59.78833008 C-27.89954321 44.15260663 -59.71903882 48.7990904 -81.86901855 70.78833008 Z " fill="#FFFFFF" transform="translate(240.8690185546875,35.211669921875)"/>
<path d="M0 0 C21.90341661 19.12360623 34.24909522 44.61023791 36.75 73.5 C38.35801989 99.34007255 30.75910706 126.03789757 14 146 C13.29101562 146.84691406 12.58203125 147.69382812 11.8515625 148.56640625 C-5.41981156 168.4133361 -27.95807288 181.16108656 -54 185 C-86.5537676 186.88450028 -114.03288086 180.81256788 -139 159 C-161.23300697 138.84838092 -172.30018002 112.69079028 -174.18359375 83.1171875 C-174.93536648 53.48849744 -163.0642977 27.29125116 -143 6 C-142.44828125 5.38382812 -141.8965625 4.76765625 -141.328125 4.1328125 C-104.80596825 -35.10138559 -39.32378728 -32.78873203 0 0 Z M-46.421875 38.3046875 C-49.3110113 41.40836363 -51.93257099 44.72768114 -54.578125 48.0390625 C-56.96315907 50.95495899 -59.44588616 53.73172134 -62 56.5 C-66.16214245 61.02406788 -70.0870852 65.69129376 -73.94921875 70.47265625 C-76.57126504 73.70401615 -79.27476207 76.8554947 -82 80 C-86.3361867 78.1121364 -89.2841346 75.09118396 -92.68359375 71.875 C-97.28618149 68.14946524 -101.66116463 67.48746821 -107.4375 67.625 C-112.54470953 68.37239652 -116.20328331 70.95746387 -119.5703125 74.78515625 C-122.61611149 78.88393147 -124.14499723 82.2461163 -124.25 87.3125 C-124.27578125 88.05113281 -124.3015625 88.78976562 -124.328125 89.55078125 C-123.42393247 96.29993266 -118.97606572 100.43684555 -114.3125 104.9375 C-113.36866455 105.86381226 -113.36866455 105.86381226 -112.40576172 106.80883789 C-108.07095832 111.03691953 -103.62706814 115.09403339 -99 119 C-96.95088691 120.83739661 -94.90216781 122.67510882 -92.859375 124.51953125 C-87.59593893 128.71037636 -82.5284206 128.69947364 -76 128 C-65.74472715 124.22174158 -58.92032579 112.97871365 -52.28125 104.75 C-49.13923588 100.96236654 -45.80084819 97.37005729 -42.46875 93.75 C-39.27481396 90.19219783 -36.29256784 86.48334523 -33.29296875 82.76171875 C-30.88338675 79.85954758 -28.37038492 77.08449785 -25.8125 74.3125 C-15.60974604 63.43553564 -15.60974604 63.43553564 -12.6171875 49.34375 C-13.47079567 44.11757756 -16.64792368 40.389634 -20.25 36.6875 C-29.29600279 31.13654374 -38.19700777 30.75769394 -46.421875 38.3046875 Z " fill="#FFFFFF" transform="translate(450,300)"/>
<path d="M0 0 C23.29381813 10.51435402 49.8592384 9.98459711 73.5625 1.125 C78.21929799 -0.66633413 78.21929799 -0.66633413 82.75 -2.75 C89.50014356 -2.82169563 95.03989271 -0.70080423 101 2.25 C102.23834595 2.85231445 102.23834595 2.85231445 103.50170898 3.46679688 C120.36147156 11.87617947 136.17715389 23.82006803 144.31640625 41.20703125 C144.75 43.25 144.75 43.25 144.125 45.25 C142.41757479 47.73352758 140.47412785 49.47293241 138.1875 51.4375 C129.91856472 58.72941411 122.63845792 65.87679592 116.75 75.25 C115.68458984 76.90708984 115.68458984 76.90708984 114.59765625 78.59765625 C107.54560365 90.05174298 103.63864408 102.43657271 99.75 115.25 C48.03584122 126.1650786 -6.64911654 125.36799666 -56 104.625 C-56.86318848 104.26510986 -57.72637695 103.90521973 -58.61572266 103.53442383 C-63.98927943 101.1617055 -68.52029532 98.70940937 -71.25 93.25 C-71.38611667 90.33973166 -71.46284843 87.4547401 -71.48828125 84.54296875 C-71.496353 83.66659256 -71.50442474 82.79021637 -71.51274109 81.88728333 C-71.52659566 80.0235899 -71.53731165 78.15987095 -71.54516602 76.29614258 C-71.55660305 74.40999805 -71.57692091 72.52388373 -71.60668945 70.63793945 C-71.91058595 51.38380452 -68.93777272 37.18881047 -55.25 22.6875 C-42.64578589 10.6163427 -17.51457599 -8.5457593 0 0 Z " fill="#FFFFFF" transform="translate(168.25,241.75)"/>
<path d="M0 0 C11.4694604 9.43156802 17.90251642 21.13122144 20.6875 35.5625 C22.16824463 51.85069089 18.12522847 66.54374987 7.6875 79.375 C-0.35032259 87.85936829 -12.31066324 95.21738312 -24.19140625 96.17700195 C-41.92487814 96.63531141 -57.20241736 94.41831353 -70.8125 81.75 C-81.86126682 69.67720114 -86.36760797 55.78917479 -86.21484375 39.6640625 C-85.41486652 26.02081453 -79.57193711 13.69524709 -70 4 C-49.45928373 -12.9268257 -22.37434111 -15.42599447 0 0 Z "  fill="#FFFFFF" transform="translate(239,107)"/>
<path d="M0 0 C3.4914117 0.05023614 4.22700674 0.3587131 7.25 2.5 C9.63587323 5.92969277 9.71530585 7.27928588 9.25 11.375 C7.73828125 13.83984375 7.73828125 13.83984375 5.5625 16.3125 C4.73878906 17.26511719 3.91507812 18.21773438 3.06640625 19.19921875 C2.61281738 19.7101709 2.15922852 20.22112305 1.69189453 20.74755859 C0.18360041 22.44994407 -1.30254469 24.16974572 -2.78515625 25.89453125 C-5.53029732 29.08382618 -8.29084135 32.25934143 -11.05615234 35.43115234 C-13.81346671 38.59542692 -16.56338036 41.76610568 -19.3125 44.9375 C-19.84520508 45.55197998 -20.37791016 46.16645996 -20.92675781 46.79956055 C-24.71223049 51.16940264 -28.48588 55.54925289 -32.25 59.9375 C-32.73025635 60.49703369 -33.2105127 61.05656738 -33.70532227 61.63305664 C-34.16350342 62.16793701 -34.62168457 62.70281738 -35.09375 63.25390625 C-35.53460938 63.76840332 -35.97546875 64.28290039 -36.4296875 64.81298828 C-37.34108766 65.8912313 -38.24151745 66.97880974 -39.1328125 68.07373047 C-42.02285025 71.62395594 -43.29712746 73.14254039 -47.875 73.875 C-51.96393553 73.34739542 -52.57802001 72.99767691 -55.44140625 70.359375 C-56.13782227 69.72386719 -56.83423828 69.08835937 -57.55175781 68.43359375 C-58.27717773 67.75425781 -59.00259766 67.07492187 -59.75 66.375 C-60.4728418 65.70597656 -61.19568359 65.03695312 -61.94042969 64.34765625 C-64.15816481 62.28418981 -66.36209979 60.20693206 -68.5625 58.125 C-69.31208984 57.41859375 -70.06167969 56.7121875 -70.83398438 55.984375 C-74.79261616 52.24861525 -74.79261616 52.24861525 -76.75 50.375 C-77.31162842 49.87645508 -77.87325684 49.37791016 -78.4519043 48.86425781 C-79.75 47.375 -79.75 47.375 -80.25 44 C-79.75 40.375 -79.75 40.375 -77.6875 37.4375 C-73.93672623 34.80397799 -72.26944736 34.77871689 -67.75 35.375 C-65.20817286 36.99272497 -63.20975253 39.02544205 -61.125 41.1875 C-55.95166476 46.44213924 -55.95166476 46.44213924 -49.75 50.375 C-47.06194193 50.47116096 -47.06194193 50.47116096 -44.75 49.375 C-44.32460938 48.51261719 -44.32460938 48.51261719 -43.890625 47.6328125 C-42.41331514 44.70854845 -40.43177676 42.69726356 -38.1875 40.3125 C-34.73537429 36.60021409 -31.43074816 32.82683862 -28.25 28.875 C-24.42382917 24.13270376 -20.38014637 19.64545631 -16.25390625 15.1640625 C-12.85518671 11.3782813 -9.6575747 7.45364278 -6.46484375 3.4921875 C-3.95678579 0.39567858 -3.95678579 0.39567858 0 0 Z " fill="#FFFFFF" transform="translate(416.75,343.625)"/>
</svg>
